<svg xmlns="http://www.w3.org/2000/svg" width="32" height="32" viewBox="0 0 32 32">
  <defs>
    <linearGradient id="hg" x1="0" y1="0" x2="1" y2="1">
      <stop offset="0%" stop-color="#34d399"/>
      <stop offset="100%" stop-color="#818cf8"/>
    </linearGradient>
    <radialGradient id="ng">
      <stop offset="0%" stop-color="#34d399" stop-opacity="0.6"/>
      <stop offset="100%" stop-color="#34d399" stop-opacity="0"/>
    </radialGradient>
  </defs>
  <rect width="32" height="32" rx="7" fill="#0d1117"/>
  <polygon points="16,3 26.4,9 26.4,21 16,27 5.6,21 5.6,9"
           fill="rgba(13,148,136,0.07)"/>
  <polygon points="16,3 26.4,9 26.4,21 16,27 5.6,21 5.6,9"
           fill="none" stroke="url(#hg)" stroke-width="1"
           stroke-dasharray="2,2" opacity="0.9"/>
  <circle cx="16" cy="3" r="4" fill="url(#ng)"/>
  <circle cx="16" cy="3" r="2.2" fill="#065f46" stroke="#34d399" stroke-width="1"/>
  <circle cx="16" cy="3" r="0.9" fill="#34d399"/>
  <circle cx="16" cy="3" r="0.4" fill="white"/>
  <circle cx="26.4" cy="21" r="3.8" fill="url(#ng)"/>
  <circle cx="26.4" cy="21" r="2" fill="#065f46" stroke="#34d399" stroke-width="1"/>
  <circle cx="26.4" cy="21" r="0.8" fill="#34d399"/>
  <circle cx="5.6" cy="21" r="3.8" fill="url(#ng)"/>
  <circle cx="5.6" cy="21" r="2" fill="#065f46" stroke="#34d399" stroke-width="1"/>
  <circle cx="5.6" cy="21" r="0.8" fill="#34d399"/>
  <circle cx="26.4" cy="9" r="1.4" fill="none" stroke="#34d399" stroke-width="0.6" opacity="0.28"/>
  <circle cx="16" cy="27" r="1.4" fill="none" stroke="#34d399" stroke-width="0.6" opacity="0.28"/>
  <circle cx="5.6" cy="9" r="1.4" fill="none" stroke="#34d399" stroke-width="0.6" opacity="0.28"/>
  <text x="16" y="20.5" text-anchor="middle"
        font-family="'Libre Baskerville', Georgia, serif"
        font-weight="700" font-size="13" fill="#e0fdf4">I</text>
</svg>
